<svg xmlns="http://www.w3.org/2000/svg" viewBox="0 0 100 100" fill="#fff">
  <defs>
    <linearGradient id="a" x1="0" y1="0" x2="75%" y2="75%">
      <stop offset="0" stop-color="#009FFF"/>
      <stop offset="1" stop-color="#96F"/>
    </linearGradient>
  </defs>
  <rect x="0" y="0" width="100%" height="100%" rx="10%" fill="url(#a)"/>
<!--  i/o lines  -->
  <g transform="rotate(-40) translate(5,30) scale(1.2)" transform-origin="50% 50%">
  <path fill="none" stroke="#fff" stroke-width="2" stroke-linecap="round" d="M70 25h25M30.4 15H5m26.4 20H5"/>
  <g fill-rule="evenodd">
    <!--    Katana Curve  -->
    <path d="M24.3 42c-1.6 2.6-2.3 3-2.3 3h-3.7l2-2.4S26 35.6 26 25 20.3 7.4 20.3 7.4l-2-2.4H22c.8 1 1.4 1.7 2.2 3a32.9 32.9 0 0 1 0 34z"/>
<!--    Main Bulge  -->
    <path d="m24 5 2 2.4s5.8 7 5.8 17.6S26 42.6 26 42.6L24 45h17.1c2.5 0 7.7 0 13.7-2.4s12.5-7.3 17.7-16.9l-1.3-.7 1.3-.7A33.7 33.7 0 0 0 41.3 5H24zm6 3h11.3c4.6 0 18.2-.1 28 17a32.2 32.2 0 0 1-15.8 14.8C48.1 42 43.7 42 41.2 42H30a33 33 0 0 0 0-34z"/>
  </g>
 </g>
</svg>